<svg width="130" height="25" viewBox="0 0 130 25" fill="none" xmlns="http://www.w3.org/2000/svg">
<path d="M15.7452 14.9625C15.7452 14.9649 15.7457 14.9673 15.7466 14.9695C15.7475 14.9718 15.7489 14.9738 15.7506 14.9755C15.7523 14.9772 15.7543 14.9786 15.7566 14.9795C15.7588 14.9804 15.7612 14.9809 15.7636 14.9809L22.5878 14.9793C22.5954 14.9793 22.5994 14.9831 22.5997 14.9907C22.6398 16.0453 22.6312 17.1346 22.4187 18.1584C21.9348 20.4893 20.3761 22.3574 18.1943 23.289C16.8985 23.8418 15.4314 23.9978 14.0202 23.9973C9.24562 23.9937 4.58216 23.9946 0.0298081 24C0.0261073 24 0.0224422 23.9993 0.0190231 23.9978C0.015604 23.9964 0.0124972 23.9943 0.00988035 23.9916C0.00726348 23.9889 0.00518711 23.9858 0.00377087 23.9823C0.00235463 23.9788 0.00162578 23.975 0.00162578 23.9713L0 18.0722C0 18.0487 0.0117419 18.037 0.0352262 18.037C4.51496 18.0351 9.06894 18.0359 13.6972 18.0391C14.2131 18.0391 14.6163 17.9833 15.032 17.6359C15.1126 17.5684 15.1929 17.4901 15.2732 17.4013C15.5972 17.0409 15.7371 16.5255 15.7327 16.0426C15.7295 15.7102 15.7297 15.3798 15.7333 15.0514C15.7333 15.0428 15.7317 15.0343 15.7285 15.0263C15.7252 15.0184 15.7205 15.0111 15.7144 15.005C15.7084 14.9989 15.7012 14.9941 15.6932 14.9908C15.6853 14.9875 15.6768 14.9858 15.6682 14.9858L5.76198 14.989C5.74247 14.989 5.73272 14.9793 5.73272 14.9598L5.73434 9.05472C5.73434 9.04244 5.74048 9.0363 5.75277 9.0363L15.652 9.03576C15.7044 9.03576 15.7309 9.00956 15.7316 8.95717C15.7378 8.56625 15.7376 8.19104 15.7311 7.83155C15.7195 7.18591 15.4867 6.68822 15.0325 6.33848C14.7402 6.1134 14.4008 6.00085 14.0142 6.00085C9.66491 6.00194 5.00253 6.00266 0.0270974 6.00302C0.0237524 6.00302 0.0204397 6.00235 0.0173493 6.00104C0.014259 5.99973 0.0114517 5.99782 0.00908648 5.9954C0.00672123 5.99299 0.00484585 5.99012 0.00356579 5.98696C0.00228573 5.9838 0.00162578 5.98042 0.00162578 5.97701L0 0.0210072C0 0.00908439 0.00578117 0.00312205 0.0173427 0.00312205C4.5585 -0.000852233 9.27633 -0.00103176 14.1708 0.00258122C15.3962 0.00312317 16.5549 0.103383 17.7195 0.471365C19.9193 1.16723 21.5971 2.96866 22.2464 5.15325C22.623 6.41923 22.6799 7.67655 22.648 9.00378C22.6478 9.01102 22.6449 9.01791 22.6397 9.02297C22.6345 9.02804 22.6276 9.03088 22.6203 9.03088L15.7772 9.03576C15.7688 9.03576 15.7608 9.03907 15.7549 9.04496C15.749 9.05086 15.7457 9.05885 15.7457 9.06719L15.7452 14.9625Z" fill="#FAFAFA"/>
<path d="M42.7902 18.1597C42.7902 16.4461 41.4391 15.5893 39.6266 15.5893C39.1323 15.5893 38.5721 15.6223 38.0119 15.6882V12.0303C38.3744 12.0962 39.0664 12.1292 39.6925 12.1292C41.1095 12.1292 42.4606 11.3712 42.4606 9.6247C42.4606 8.07588 41.505 7.02137 39.6596 7.02137C37.6165 7.02137 36.496 8.60314 36.496 10.844L31.6848 10.6463C31.6848 6.3623 34.7165 3.00103 39.8243 3.00103C44.6356 3.00103 47.4037 5.47255 47.4037 9.1304C47.4037 11.6678 45.5583 13.3814 43.614 13.645C46.2832 14.0734 47.898 15.9518 47.898 18.5222C47.898 22.3118 44.7015 24.5527 39.8902 24.5527C34.5847 24.5527 31.4212 21.6528 31.4212 17.0393L36.3313 17.204C36.3972 19.4449 37.7812 20.5323 39.9232 20.5323C41.505 20.5323 42.7902 19.7085 42.7902 18.1597ZM68.2347 18.4563C68.2347 22.0482 65.4666 24.1572 60.6224 24.1572H50.242V3.39647H59.9963C65.3018 3.39647 67.6415 5.63732 67.6415 9.09744C67.6415 11.4042 66.0927 13.0189 63.8848 13.3814C66.3563 13.8757 68.2347 15.4904 68.2347 18.4563ZM59.8645 15.5563H55.0862V20.1369H59.8974C62.1053 20.1369 63.1269 19.2471 63.1269 17.8631C63.1269 16.479 62.1053 15.5563 59.8645 15.5563ZM55.0862 7.38386V11.7996H59.4361C61.611 11.7996 62.4678 10.844 62.4678 9.6247C62.4678 8.33951 61.611 7.38386 59.4361 7.38386H55.0862ZM77.0778 3.39647H82.647L91.0172 24.1572H85.6787L83.8992 19.6755H75.529L73.7825 24.1572H68.7735L77.0778 3.39647ZM79.6482 9.09744L76.979 15.9188H82.4493L79.78 9.09744H79.6482ZM91.3135 16.7756L95.8941 16.6109C96.0918 19.4778 98.2338 20.6312 100.804 20.6312C103.012 20.6312 104.396 19.7744 104.396 18.3904C104.396 17.0063 103.177 16.6768 101.364 16.3143L97.4758 15.6223C94.1805 14.9961 91.8408 13.1507 91.8408 9.6247C91.8408 5.53846 95.0373 3.00103 100.079 3.00103C105.714 3.00103 108.779 5.80208 108.878 10.4156L104.264 10.5474C104.132 8.10883 102.452 6.92251 100.046 6.92251C97.9372 6.92251 96.7509 7.7793 96.7509 9.1963C96.7509 10.3826 97.6736 10.811 99.1894 11.1076L103.078 11.7996C107.329 12.5576 109.273 14.6666 109.273 18.0608C109.273 22.3448 105.549 24.5527 100.804 24.5527C95.268 24.5527 91.3135 21.8175 91.3135 16.7756ZM127.981 20.038V24.1572H111.966V3.39647H127.684V7.51567H116.876V11.6019H125.279V15.6552H116.876V20.038H127.981Z" fill="#FAFAFA"/>
</svg>
