<svg width="32" height="32" viewBox="0 0 32 32" fill="none" xmlns="http://www.w3.org/2000/svg">
<path d="M22.2394 19.9315C22.2394 19.9348 22.2401 19.9379 22.2414 19.9409C22.2427 19.9439 22.2446 19.9466 22.247 19.9489C22.2494 19.9512 22.2523 19.953 22.2554 19.9542C22.2586 19.9554 22.262 19.9561 22.2654 19.9561L31.9043 19.9539C31.915 19.9539 31.9206 19.959 31.9211 19.9691C31.9778 21.3739 31.9655 22.825 31.6655 24.1887C30.9819 27.2938 28.7804 29.7822 25.6986 31.0232C23.8683 31.7596 21.7962 31.9675 19.8029 31.9668C13.059 31.962 6.4721 31.9632 0.0421026 31.9704C0.0368754 31.9704 0.0316986 31.9694 0.0268692 31.9675C0.0220399 31.9656 0.0176518 31.9627 0.0139556 31.9592C0.0102593 31.9556 0.00732657 31.9514 0.00532619 31.9468C0.00332581 31.9421 0.00229634 31.9372 0.00229634 31.9321L0 24.074C0 24.0427 0.0165849 24.027 0.0497555 24.027C6.37718 24.0246 12.8095 24.0256 19.3466 24.0299C20.0754 24.0299 20.6449 23.9556 21.232 23.4928C21.3458 23.4028 21.4594 23.2986 21.5727 23.1802C22.0304 22.7001 22.2279 22.0136 22.2218 21.3703C22.2172 20.9275 22.2174 20.4874 22.2225 20.0499C22.2226 20.0385 22.2203 20.0271 22.2158 20.0166C22.2112 20.006 22.2044 19.9963 22.1959 19.9882C22.1874 19.9801 22.1772 19.9736 22.166 19.9692C22.1548 19.9648 22.1428 19.9626 22.1307 19.9626L8.13854 19.9669C8.11099 19.9669 8.09721 19.9539 8.09721 19.9279L8.0995 12.0618C8.0995 12.0454 8.10818 12.0373 8.12553 12.0373L22.1077 12.0365C22.1817 12.0365 22.2192 12.0016 22.2202 11.9318C22.2289 11.4111 22.2287 10.9113 22.2195 10.4324C22.2031 9.57235 21.8742 8.90938 21.2328 8.44349C20.8199 8.14365 20.3405 7.99373 19.7945 7.99373C13.6512 7.99518 7.06586 7.99614 0.0382738 7.99662C0.0335492 7.99662 0.0288701 7.99572 0.0245051 7.99398C0.0201402 7.99224 0.0161751 7.98969 0.0128342 7.98647C0.00949344 7.98325 0.00684455 7.97943 0.00503652 7.97523C0.00322849 7.97103 0.00229634 7.96652 0.00229634 7.96197L0 0.0279837C0 0.0121013 0.00816564 0.00415888 0.0244958 0.00415888C6.43868 -0.00113526 13.1024 -0.0013744 20.0157 0.00343845C21.7464 0.00416037 23.383 0.137717 25.028 0.627905C28.1351 1.55486 30.505 3.95455 31.422 6.86464C31.954 8.55106 32.0344 10.2259 31.9893 11.9939C31.9891 12.0036 31.9848 12.0128 31.9776 12.0195C31.9702 12.0263 31.9604 12.03 31.9502 12.03L22.2845 12.0365C22.2728 12.0365 22.2615 12.0409 22.2532 12.0488C22.2448 12.0566 22.2401 12.0673 22.2401 12.0784L22.2394 19.9315Z" fill="#FAFAFA"/>
</svg>
